<svg id="Group_47" data-name="Group 47" xmlns="http://www.w3.org/2000/svg" xmlns:xlink="http://www.w3.org/1999/xlink" width="489.758" height="508.623" viewBox="0 0 489.758 508.623">
  <defs>
    <clipPath id="clip-path">
      <rect id="Rectangle_34" data-name="Rectangle 34" width="489.758" height="508.623" fill="#3ae501"/>
    </clipPath>
  </defs>
  <rect id="Rectangle_26" data-name="Rectangle 26" width="42.188" height="25.69" transform="translate(268.886 457.243)" fill="#3ae501"/>
  <rect id="Rectangle_27" data-name="Rectangle 27" width="78.587" height="25.691" transform="translate(294.467 482.932)" fill="#3ae501"/>
  <rect id="Rectangle_28" data-name="Rectangle 28" width="29.064" height="138.369" transform="translate(244.451 318.875)" fill="#3ae501"/>
  <g id="Group_7" data-name="Group 7">
    <g id="Group_6" data-name="Group 6" clip-path="url(#clip-path)">
      <path id="Path_1" data-name="Path 1" d="M294.15,340.735q-.064,13.68-.077,27.352H214.661v45.3H174.484v-45.3H142.862V340.735c50.41-.035,100.87.051,151.289,0" transform="translate(-20.635 -49.215)" fill="#3ae501"/>
      <path id="Path_2" data-name="Path 2" d="M550.8,23.93v26.5H451.646v67.392H422.592V0h79.482V23.93Z" transform="translate(-61.04 0)" fill="#3ae501"/>
      <path id="Path_3" data-name="Path 3" d="M436.782,90.826V276.439H407.727v28.2c-29.337.026-58.708-.026-88.037,0,.042-9.385-.034-18.814,0-28.2h61.54V218.313h26.523V173.208a2.579,2.579,0,0,0-.026-.376V90.826Z" transform="translate(-46.175 -13.119)" fill="#3ae501"/>
      <path id="Path_4" data-name="Path 4" d="M173.775,425.657V545.318h35.9V570.1H143.859V425.657Z" transform="translate(-20.779 -61.482)" fill="#3ae501"/>
      <rect id="Rectangle_29" data-name="Rectangle 29" width="133.337" height="24.787" transform="translate(111.114 135.963)" fill="#3ae501"/>
      <rect id="Rectangle_30" data-name="Rectangle 30" width="27.351" height="82.908" transform="translate(0 235.112)" fill="#3ae501"/>
      <rect id="Rectangle_31" data-name="Rectangle 31" width="27.351" height="55.557" transform="translate(49.574 263.317)" fill="#3ae501"/>
      <rect id="Rectangle_32" data-name="Rectangle 32" width="39.317" height="28.206" transform="translate(71.797 161.605)" fill="#3ae501"/>
      <rect id="Rectangle_33" data-name="Rectangle 33" width="35.898" height="30.77" transform="translate(35.044 189.811)" fill="#3ae501"/>
      <path id="Path_5" data-name="Path 5" d="M315.633,189.315v26.925H285.722V188.887H315.53a.876.876,0,0,1,.1.428" transform="translate(-41.27 -27.283)" fill="#3ae501"/>
      <path id="Path_6" data-name="Path 6" d="M350.366,189.315v26.925H320.455V188.887h29.807a.882.882,0,0,1,.1.428" transform="translate(-46.287 -27.283)" fill="#3ae501"/>
    </g>
  </g>
</svg>
